<?xml version="1.0" standalone="no"?>
<!DOCTYPE svg PUBLIC "-//W3C//DTD SVG 1.1//EN" "https://www.w3.org/Graphics/SVG/1.1/DTD/svg11.dtd">

<svg width="800" height="600" version="1.1" xmlns="http://www.w3.org/2000/svg">
	<ellipse stroke="black" stroke-width="1" fill="none" cx="59.5" cy="187.5" rx="30" ry="30"/>
	<text x="44.5" y="193.5" font-family="Times New Roman" font-size="20">Q0</text>
	<ellipse stroke="black" stroke-width="1" fill="none" cx="197.5" cy="187.5" rx="30" ry="30"/>
	<text x="176.5" y="193.5" font-family="Times New Roman" font-size="20">Q28</text>
	<ellipse stroke="black" stroke-width="1" fill="none" cx="342.5" cy="187.5" rx="30" ry="30"/>
	<text x="321.5" y="193.5" font-family="Times New Roman" font-size="20">Q29</text>
	<ellipse stroke="black" stroke-width="1" fill="none" cx="52.5" cy="46.5" rx="30" ry="30"/>
	<text x="37.5" y="52.5" font-family="Times New Roman" font-size="20">Q0</text>
	<ellipse stroke="black" stroke-width="1" fill="none" cx="190.5" cy="46.5" rx="30" ry="30"/>
	<text x="169.5" y="52.5" font-family="Times New Roman" font-size="20">Q20</text>
	<ellipse stroke="black" stroke-width="1" fill="none" cx="329.5" cy="46.5" rx="30" ry="30"/>
	<text x="308.5" y="52.5" font-family="Times New Roman" font-size="20">Q21</text>
	<ellipse stroke="black" stroke-width="1" fill="none" cx="471.5" cy="46.5" rx="30" ry="30"/>
	<text x="450.5" y="52.5" font-family="Times New Roman" font-size="20">Q22</text>
	<ellipse stroke="black" stroke-width="1" fill="none" cx="610.5" cy="46.5" rx="30" ry="30"/>
	<text x="589.5" y="52.5" font-family="Times New Roman" font-size="20">Q23</text>
	<ellipse stroke="black" stroke-width="1" fill="none" cx="744.5" cy="46.5" rx="30" ry="30"/>
	<text x="723.5" y="52.5" font-family="Times New Roman" font-size="20">Q24</text>
	<ellipse stroke="black" stroke-width="1" fill="none" cx="744.5" cy="187.5" rx="30" ry="30"/>
	<text x="723.5" y="193.5" font-family="Times New Roman" font-size="20">Q25</text>
	<ellipse stroke="black" stroke-width="1" fill="none" cx="70.5" cy="325.5" rx="30" ry="30"/>
	<text x="55.5" y="331.5" font-family="Times New Roman" font-size="20">Q0</text>
	<ellipse stroke="black" stroke-width="1" fill="none" cx="197.5" cy="325.5" rx="30" ry="30"/>
	<text x="182.5" y="331.5" font-family="Times New Roman" font-size="20">Q31</text>
	<ellipse stroke="black" stroke-width="1" fill="none" cx="197.5" cy="325.5" rx="24" ry="24"/>
	<ellipse stroke="black" stroke-width="1" fill="none" cx="511.5" cy="311.5" rx="30" ry="30"/>
	<text x="496.5" y="317.5" font-family="Times New Roman" font-size="20">Q0</text>
	<ellipse stroke="black" stroke-width="1" fill="none" cx="656.5" cy="311.5" rx="30" ry="30"/>
	<text x="641.5" y="317.5" font-family="Times New Roman" font-size="20">QF</text>
	<ellipse stroke="black" stroke-width="1" fill="none" cx="656.5" cy="311.5" rx="24" ry="24"/>
	<ellipse stroke="black" stroke-width="1" fill="none" cx="610.5" cy="187.5" rx="30" ry="30"/>
	<text x="589.5" y="193.5" font-family="Times New Roman" font-size="20">Q26</text>
	<ellipse stroke="black" stroke-width="1" fill="none" cx="511.5" cy="187.5" rx="30" ry="30"/>
	<text x="496.5" y="193.5" font-family="Times New Roman" font-size="20">Q27</text>
	<ellipse stroke="black" stroke-width="1" fill="none" cx="511.5" cy="187.5" rx="24" ry="24"/>
	<ellipse stroke="black" stroke-width="1" fill="none" cx="342.5" cy="325.5" rx="30" ry="30"/>
	<text x="327.5" y="331.5" font-family="Times New Roman" font-size="20">Q30</text>
	<ellipse stroke="black" stroke-width="1" fill="none" cx="342.5" cy="325.5" rx="24" ry="24"/>
	<ellipse stroke="black" stroke-width="1" fill="none" cx="63.5" cy="454.5" rx="30" ry="30"/>
	<text x="48.5" y="460.5" font-family="Times New Roman" font-size="20">Q0</text>
	<ellipse stroke="black" stroke-width="1" fill="none" cx="182.5" cy="454.5" rx="30" ry="30"/>
	<text x="167.5" y="460.5" font-family="Times New Roman" font-size="20">QF</text>
	<ellipse stroke="black" stroke-width="1" fill="none" cx="182.5" cy="454.5" rx="24" ry="24"/>
	<ellipse stroke="black" stroke-width="1" fill="none" cx="182.5" cy="559.5" rx="30" ry="30"/>
	<text x="161.5" y="565.5" font-family="Times New Roman" font-size="20">Q34</text>
	<ellipse stroke="black" stroke-width="1" fill="none" cx="293.5" cy="454.5" rx="30" ry="30"/>
	<text x="278.5" y="460.5" font-family="Times New Roman" font-size="20">Q0</text>
	<ellipse stroke="black" stroke-width="1" fill="none" cx="405.5" cy="454.5" rx="30" ry="30"/>
	<text x="384.5" y="460.5" font-family="Times New Roman" font-size="20">Q39</text>
	<ellipse stroke="black" stroke-width="1" fill="none" cx="405.5" cy="559.5" rx="30" ry="30"/>
	<text x="390.5" y="565.5" font-family="Times New Roman" font-size="20">QF</text>
	<ellipse stroke="black" stroke-width="1" fill="none" cx="405.5" cy="559.5" rx="24" ry="24"/>
	<ellipse stroke="black" stroke-width="1" fill="none" cx="545.5" cy="454.5" rx="30" ry="30"/>
	<text x="530.5" y="460.5" font-family="Times New Roman" font-size="20">Q0</text>
	<ellipse stroke="black" stroke-width="1" fill="none" cx="667.5" cy="454.5" rx="30" ry="30"/>
	<text x="646.5" y="460.5" font-family="Times New Roman" font-size="20">Q40</text>
	<ellipse stroke="black" stroke-width="1" fill="none" cx="667.5" cy="559.5" rx="30" ry="30"/>
	<text x="652.5" y="565.5" font-family="Times New Roman" font-size="20">QF</text>
	<ellipse stroke="black" stroke-width="1" fill="none" cx="667.5" cy="559.5" rx="24" ry="24"/>
	<polygon stroke="black" stroke-width="1" points="89.5,187.5 167.5,187.5"/>
	<polygon fill="black" stroke-width="1" points="167.5,187.5 159.5,182.5 159.5,192.5"/>
	<text x="121.5" y="208.5" font-family="Times New Roman" font-size="20">L</text>
	<polygon stroke="black" stroke-width="1" points="227.5,187.5 312.5,187.5"/>
	<polygon fill="black" stroke-width="1" points="312.5,187.5 304.5,182.5 304.5,192.5"/>
	<text x="262.5" y="208.5" font-family="Times New Roman" font-size="20">E</text>
	<polygon stroke="black" stroke-width="1" points="82.5,46.5 160.5,46.5"/>
	<polygon fill="black" stroke-width="1" points="160.5,46.5 152.5,41.5 152.5,51.5"/>
	<text x="114.5" y="67.5" font-family="Times New Roman" font-size="20">E</text>
	<polygon stroke="black" stroke-width="1" points="220.5,46.5 299.5,46.5"/>
	<polygon fill="black" stroke-width="1" points="299.5,46.5 291.5,41.5 291.5,51.5"/>
	<text x="253.5" y="67.5" font-family="Times New Roman" font-size="20">S</text>
	<polygon stroke="black" stroke-width="1" points="359.5,46.5 441.5,46.5"/>
	<polygon fill="black" stroke-width="1" points="441.5,46.5 433.5,41.5 433.5,51.5"/>
	<text x="392.5" y="67.5" font-family="Times New Roman" font-size="20">C</text>
	<polygon stroke="black" stroke-width="1" points="501.5,46.5 580.5,46.5"/>
	<polygon fill="black" stroke-width="1" points="580.5,46.5 572.5,41.5 572.5,51.5"/>
	<text x="533.5" y="67.5" font-family="Times New Roman" font-size="20">R</text>
	<polygon stroke="black" stroke-width="1" points="640.5,46.5 714.5,46.5"/>
	<polygon fill="black" stroke-width="1" points="714.5,46.5 706.5,41.5 706.5,51.5"/>
	<text x="670.5" y="67.5" font-family="Times New Roman" font-size="20">E</text>
	<polygon stroke="black" stroke-width="1" points="744.5,76.5 744.5,157.5"/>
	<polygon fill="black" stroke-width="1" points="744.5,157.5 749.5,149.5 739.5,149.5"/>
	<text x="725.5" y="123.5" font-family="Times New Roman" font-size="20">V</text>
	<polygon stroke="black" stroke-width="1" points="100.5,325.5 167.5,325.5"/>
	<polygon fill="black" stroke-width="1" points="167.5,325.5 159.5,320.5 159.5,330.5"/>
	<text x="130.5" y="346.5" font-family="Times New Roman" font-size="20">.</text>
	<polygon stroke="black" stroke-width="1" points="541.5,311.5 626.5,311.5"/>
	<polygon fill="black" stroke-width="1" points="626.5,311.5 618.5,306.5 618.5,316.5"/>
	<text x="561.5" y="302.5" font-family="Times New Roman" font-size="20">[a-z]</text>
	<polygon stroke="black" stroke-width="1" points="714.5,187.5 640.5,187.5"/>
	<polygon fill="black" stroke-width="1" points="640.5,187.5 648.5,192.5 648.5,182.5"/>
	<text x="670.5" y="178.5" font-family="Times New Roman" font-size="20">E</text>
	<polygon stroke="black" stroke-width="1" points="580.5,187.5 541.5,187.5"/>
	<polygon fill="black" stroke-width="1" points="541.5,187.5 549.5,192.5 549.5,182.5"/>
	<text x="553.5" y="178.5" font-family="Times New Roman" font-size="20">R</text>
	<polygon stroke="black" stroke-width="1" points="342.5,217.5 342.5,295.5"/>
	<polygon fill="black" stroke-width="1" points="342.5,295.5 347.5,287.5 337.5,287.5"/>
	<text x="322.5" y="262.5" font-family="Times New Roman" font-size="20">R</text>
	<path stroke="black" stroke-width="1" fill="none" d="M 669.725,338.297 A 22.5,22.5 0 1 1 643.275,338.297"/>
	<text x="536.5" y="400.5" font-family="Times New Roman" font-size="20">[a-z],[0-9],.,espaco,=,_,-</text>
	<polygon fill="black" stroke-width="1" points="643.275,338.297 634.527,341.83 642.618,347.708"/>
	<polygon stroke="black" stroke-width="1" points="93.5,454.5 152.5,454.5"/>
	<polygon fill="black" stroke-width="1" points="152.5,454.5 144.5,449.5 144.5,459.5"/>
	<text x="114.5" y="475.5" font-family="Times New Roman" font-size="20">=</text>
	<path stroke="black" stroke-width="1" fill="none" d="M 162.266,537.736 A 62.903,62.903 0 0 1 162.266,476.264"/>
	<polygon fill="black" stroke-width="1" points="162.266,537.736 162.72,528.313 153.995,533.199"/>
	<text x="101.5" y="513.5" font-family="Times New Roman" font-size="20">[0,9]</text>
	<path stroke="black" stroke-width="1" fill="none" d="M 206.566,471.807 A 56.004,56.004 0 0 1 206.566,542.193"/>
	<polygon fill="black" stroke-width="1" points="206.566,471.807 207.703,481.172 215.482,474.888"/>
	<text x="224.5" y="513.5" font-family="Times New Roman" font-size="20">=</text>
	<polygon stroke="black" stroke-width="1" points="323.5,454.5 375.5,454.5"/>
	<polygon fill="black" stroke-width="1" points="375.5,454.5 367.5,449.5 367.5,459.5"/>
	<text x="341.5" y="475.5" font-family="Times New Roman" font-size="20">+</text>
	<path stroke="black" stroke-width="1" fill="none" d="M 426.149,475.858 A 61.974,61.974 0 0 1 426.149,538.142"/>
	<polygon fill="black" stroke-width="1" points="426.149,538.142 434.492,533.738 425.846,528.713"/>
	<text x="439.5" y="512.5" font-family="Times New Roman" font-size="20">[0-9]</text>
	<path stroke="black" stroke-width="1" fill="none" d="M 385.797,537.239 A 64.164,64.164 0 0 1 385.797,476.761"/>
	<polygon fill="black" stroke-width="1" points="385.797,476.761 377.617,481.46 386.437,486.173"/>
	<text x="356.5" y="513.5" font-family="Times New Roman" font-size="20">+</text>
	<polygon stroke="black" stroke-width="1" points="575.5,454.5 637.5,454.5"/>
	<polygon fill="black" stroke-width="1" points="637.5,454.5 629.5,449.5 629.5,459.5"/>
	<text x="603.5" y="475.5" font-family="Times New Roman" font-size="20">-</text>
	<path stroke="black" stroke-width="1" fill="none" d="M 693.174,469.265 A 54.112,54.112 0 0 1 693.174,544.735"/>
	<polygon fill="black" stroke-width="1" points="693.174,544.735 702.337,542.488 695.169,535.514"/>
	<text x="713.5" y="513.5" font-family="Times New Roman" font-size="20">[0-9]</text>
	<path stroke="black" stroke-width="1" fill="none" d="M 643.781,541.711 A 56.486,56.486 0 0 1 643.781,472.289"/>
	<polygon fill="black" stroke-width="1" points="643.781,472.289 634.92,475.527 642.809,481.672"/>
	<text x="620.5" y="513.5" font-family="Times New Roman" font-size="20">-</text>
</svg>
