<?xml version="1.0" standalone="no"?>
<!DOCTYPE svg PUBLIC "-//W3C//DTD SVG 1.1//EN" "https://www.w3.org/Graphics/SVG/1.1/DTD/svg11.dtd">

<svg width="800" height="600" version="1.1" xmlns="http://www.w3.org/2000/svg">
	<ellipse stroke="black" stroke-width="1" fill="none" cx="97.5" cy="116.5" rx="30" ry="30"/>
	<text x="85.5" y="122.5" font-family="Times New Roman" font-size="20">Q0</text>
	<ellipse stroke="black" stroke-width="1" fill="none" cx="276.5" cy="116.5" rx="30" ry="30"/>
	<text x="259.5" y="122.5" font-family="Times New Roman" font-size="20">Q32</text>
	<ellipse stroke="black" stroke-width="1" fill="none" cx="454.5" cy="116.5" rx="30" ry="30"/>
	<text x="437.5" y="122.5" font-family="Times New Roman" font-size="20">Q33</text>
	<ellipse stroke="black" stroke-width="1" fill="none" cx="454.5" cy="116.5" rx="24" ry="24"/>
	<ellipse stroke="black" stroke-width="1" fill="none" cx="97.5" cy="264.5" rx="30" ry="30"/>
	<text x="85.5" y="270.5" font-family="Times New Roman" font-size="20">Q0</text>
	<ellipse stroke="black" stroke-width="1" fill="none" cx="266.5" cy="264.5" rx="30" ry="30"/>
	<text x="249.5" y="270.5" font-family="Times New Roman" font-size="20">Q34</text>
	<ellipse stroke="black" stroke-width="1" fill="none" cx="454.5" cy="264.5" rx="30" ry="30"/>
	<text x="437.5" y="270.5" font-family="Times New Roman" font-size="20">Q35</text>
	<ellipse stroke="black" stroke-width="1" fill="none" cx="454.5" cy="264.5" rx="24" ry="24"/>
	<ellipse stroke="black" stroke-width="1" fill="none" cx="266.5" cy="393.5" rx="30" ry="30"/>
	<text x="249.5" y="399.5" font-family="Times New Roman" font-size="20">Q36</text>
	<ellipse stroke="black" stroke-width="1" fill="none" cx="454.5" cy="393.5" rx="30" ry="30"/>
	<text x="437.5" y="399.5" font-family="Times New Roman" font-size="20">Q37</text>
	<ellipse stroke="black" stroke-width="1" fill="none" cx="454.5" cy="393.5" rx="24" ry="24"/>
	<ellipse stroke="black" stroke-width="1" fill="none" cx="83.5" cy="526.5" rx="30" ry="30"/>
	<text x="71.5" y="532.5" font-family="Times New Roman" font-size="20">Q0</text>
	<ellipse stroke="black" stroke-width="1" fill="none" cx="266.5" cy="526.5" rx="30" ry="30"/>
	<text x="249.5" y="532.5" font-family="Times New Roman" font-size="20">Q39</text>
	<ellipse stroke="black" stroke-width="1" fill="none" cx="266.5" cy="526.5" rx="24" ry="24"/>
	<ellipse stroke="black" stroke-width="1" fill="none" cx="348.5" cy="531.5" rx="30" ry="30"/>
	<text x="336.5" y="537.5" font-family="Times New Roman" font-size="20">Q0</text>
	<ellipse stroke="black" stroke-width="1" fill="none" cx="498.5" cy="531.5" rx="30" ry="30"/>
	<text x="481.5" y="537.5" font-family="Times New Roman" font-size="20">Q40</text>
	<ellipse stroke="black" stroke-width="1" fill="none" cx="498.5" cy="531.5" rx="24" ry="24"/>
	<ellipse stroke="black" stroke-width="1" fill="none" cx="587.5" cy="531.5" rx="30" ry="30"/>
	<text x="575.5" y="537.5" font-family="Times New Roman" font-size="20">Q0</text>
	<ellipse stroke="black" stroke-width="1" fill="none" cx="746.5" cy="531.5" rx="30" ry="30"/>
	<text x="729.5" y="537.5" font-family="Times New Roman" font-size="20">Q38</text>
	<ellipse stroke="black" stroke-width="1" fill="none" cx="746.5" cy="531.5" rx="24" ry="24"/>
	<polygon stroke="black" stroke-width="1" points="127.5,116.5 246.5,116.5"/>
	<polygon fill="black" stroke-width="1" points="246.5,116.5 238.5,111.5 238.5,121.5"/>
	<text x="168.5" y="137.5" font-family="Times New Roman" font-size="20">[a-z]</text>
	<path stroke="black" stroke-width="1" fill="none" d="M 263.275,89.703 A 22.5,22.5 0 1 1 289.725,89.703"/>
	<text x="208.5" y="39.5" font-family="Times New Roman" font-size="20">[a-z] | [0-9] | - | _</text>
	<polygon fill="black" stroke-width="1" points="289.725,89.703 298.473,86.17 290.382,80.292"/>
	<polygon stroke="black" stroke-width="1" points="306.5,116.5 424.5,116.5"/>
	<polygon fill="black" stroke-width="1" points="424.5,116.5 416.5,111.5 416.5,121.5"/>
	<text x="328.5" y="137.5" font-family="Times New Roman" font-size="20">. | espaco</text>
	<polygon stroke="black" stroke-width="1" points="127.5,264.5 236.5,264.5"/>
	<polygon fill="black" stroke-width="1" points="236.5,264.5 228.5,259.5 228.5,269.5"/>
	<text x="162.5" y="285.5" font-family="Times New Roman" font-size="20">[0-9]</text>
	<polygon stroke="black" stroke-width="1" points="296.5,264.5 424.5,264.5"/>
	<polygon fill="black" stroke-width="1" points="424.5,264.5 416.5,259.5 416.5,269.5"/>
	<text x="339.5" y="285.5" font-family="Times New Roman" font-size="20">outro</text>
	<path stroke="black" stroke-width="1" fill="none" d="M 258.44,235.725 A 22.5,22.5 0 1 1 284.437,240.599"/>
	<text x="271.5" y="186.5" font-family="Times New Roman" font-size="20">[0-9]</text>
	<polygon fill="black" stroke-width="1" points="284.437,240.599 293.686,238.738 286.817,231.47"/>
	<polygon stroke="black" stroke-width="1" points="266.5,294.5 266.5,363.5"/>
	<polygon fill="black" stroke-width="1" points="266.5,363.5 271.5,355.5 261.5,355.5"/>
	<text x="256.5" y="335.5" font-family="Times New Roman" font-size="20">,</text>
	<polygon stroke="black" stroke-width="1" points="296.5,393.5 424.5,393.5"/>
	<polygon fill="black" stroke-width="1" points="424.5,393.5 416.5,388.5 416.5,398.5"/>
	<text x="339.5" y="414.5" font-family="Times New Roman" font-size="20">outro</text>
	<polygon stroke="black" stroke-width="1" points="113.5,526.5 236.5,526.5"/>
	<polygon fill="black" stroke-width="1" points="236.5,526.5 228.5,521.5 228.5,531.5"/>
	<text x="169.5" y="547.5" font-family="Times New Roman" font-size="20">+</text>
	<polygon stroke="black" stroke-width="1" points="378.5,531.5 468.5,531.5"/>
	<polygon fill="black" stroke-width="1" points="468.5,531.5 460.5,526.5 460.5,536.5"/>
	<text x="420.5" y="552.5" font-family="Times New Roman" font-size="20">-</text>
	<polygon stroke="black" stroke-width="1" points="617.5,531.5 716.5,531.5"/>
	<polygon fill="black" stroke-width="1" points="716.5,531.5 708.5,526.5 708.5,536.5"/>
	<text x="661.5" y="552.5" font-family="Times New Roman" font-size="20">=</text>
</svg>

